:SAMPLES-PER-SECOND 30
:FULLY-SPECIFIED
:DEGREES
81
root  4.29855 38.3644 23.5603 -32.1505 -83.2732 28.6915
RightUpLeg  -21.6822 4.32567 -7.39842
RightLeg  62.4565 -5.54316 -11.9683
RightFoot  -3.98539 0.00673255 -0.504266
RightToes  2.32829e-010 0 -3.6325e-017
Spine  10.5543 -1.66298 -6.5705
Spine1  5.27337 -3.12099 3.68317
HEad  -10.5088 -7.64256 6.15198
LeftShoulder1  7.78084 -11.1471 -46.3121
LeftArm  -3.27708 18.3274 -26.5191
LeftForeArm  174.09 -61.5311 -162.13
LeftHand  -0.244104 0.0205437 5.32207
RightShoulder  5.70966 8.69993 40.5939
RightArm  6.84349 -33.8536 31.5573
RightForeArm  128.026 77.6432 125.858
RightHand  0.0770857 -8.14486 -4.80039
LeftUpLeg  -3.59959 9.35318 -8.79314
LeftLeg  30.1653 7.16734 4.83282
LeftFoot  -21.8535 0.520606 4.24077
LeftToes  -1.53708e-010 -3.96652e-011 -3.29181e-011
82
root  1.74057 39.033 23.9207 -10.2873 -84.5057 6.92674
RightUpLeg  -22.344 1.8269 -3.18594
RightLeg  51.3384 -6.75952 -9.38211
RightFoot  -5.61958 -0.0838818 0.880849
RightToes  2.32829e-010 0 -3.6325e-017
Spine  9.09782 -3.3234 -5.47785
Spine1  5.22041 -5.47138 6.82251
HEad  -8.24323 -5.61921 3.80551
LeftShoulder1  7.36169 -10.743 -45.0141
LeftArm  -1.35449 18.5752 -30.846
LeftForeArm  176.199 -58.2975 -164.428
LeftHand  -0.244104 0.0205437 5.32207
RightShoulder  4.92774 8.08086 36.5366
RightArm  13.3864 -40.9815 26.2273
RightForeArm  138.991 72.5632 144.506
RightHand  0.0390278 -7.43401 -4.25378
LeftUpLeg  2.68451 9.56499 -5.17421
LeftLeg  25.4248 6.65148 3.78634
LeftFoot  -19.4012 0.279554 2.25335
LeftToes  -1.53708e-010 -3.96652e-011 -3.29181e-011
83
root  -0.939446 39.6971 24.233 2.05986 -85.8506 -4.87607
RightUpLeg  -21.8732 -1.61634 0.36979
RightLeg  37.4971 -6.77277 -5.89503
RightFoot  -6.75094 -0.0956603 1.21848
RightToes  2.32829e-010 0 -3.6325e-017
Spine  6.69416 -4.52083 -4.42853
Spine1  5.1061 -6.74181 7.61944
HEad  -4.82122 -4.29352 1.93444
LeftShoulder1  6.90127 -10.2301 -43.7164
LeftArm  1.44951 18.5599 -33.5247
LeftForeArm  177.605 -55.9837 -165.809
LeftHand  -0.244104 0.0205437 5.32207
RightShoulder  4.34058 7.6632 32.9403
RightArm  18.6972 -47.2356 21.6919
RightForeArm  145.403 68.1694 152.726
RightHand  0.025331 -7.9169 -2.98696
LeftUpLeg  7.69744 12.7408 -2.14718
LeftLeg  22.1517 4.38047 2.30425
LeftFoot  -14.161 0.0543173 -1.85734
LeftToes  -1.53708e-010 -3.96652e-011 -3.29181e-011
84
root  -3.61899 40.1891 24.4969 -8.75374 -87.9421 6.78044
RightUpLeg  -20.9561 -6.89777 3.57864
RightLeg  23.4897 -5.71254 -2.7275
RightFoot  -7.63177 -0.122015 2.25047
RightToes  2.32829e-010 0 -3.6325e-017
Spine  3.92896 -4.98894 -3.0371
Spine1  5.13534 -6.73417 6.34727
HEad  -1.13966 -4.09128 1.53291
LeftShoulder1  6.5556 -9.78635 -42.8631
LeftArm  4.27274 17.7851 -34.2511
LeftForeArm  179.559 -54.5269 -166.681
LeftHand  -0.244104 0.0205437 5.32207
RightShoulder  4.10286 7.65518 30.8214
RightArm  20.1744 -52.8377 19.2018
RightForeArm  149.743 65.9873 155.762
RightHand  0.021368 -8.69813 -2.2792
LeftUpLeg  10.4638 17.4417 0.277291
LeftLeg  22.1438 0.580743 0.575327
LeftFoot  -5.45985 0.367881 -6.37037
LeftToes  -1.53708e-010 -3.96652e-011 -3.29181e-011
85
root  -6.17916 40.2876 24.7151 -58.7718 -89.0613 56.9761
RightUpLeg  -18.9888 -9.8303 5.23099
RightLeg  12.1181 -8.39944 0.976728
RightFoot  -9.46956 -0.137782 4.6349
RightToes  2.32829e-010 0 -3.6325e-017
Spine  2.3743 -5.12107 -1.91773
Spine1  5.55854 -6.41235 5.07363
HEad  0.885638 -4.88881 2.15086
LeftShoulder1  6.28333 -9.34957 -42.4486
LeftArm  6.22155 16.3739 -34.4339
LeftForeArm  -178.545 -53.9165 -167.11
LeftHand  -0.244104 0.0205437 5.32207
RightShoulder  3.97556 7.79825 29.1974
RightArm  18.173 -56.9946 19.69
RightForeArm  150.679 65.2169 156.647
RightHand  0.0267962 -8.92286 -2.36415
LeftUpLeg  10.3944 17.9201 1.23793
LeftLeg  27.4794 -2.40645 -1.0412
LeftFoot  3.93676 1.32351 -10.0637
LeftToes  -1.53708e-010 -3.96652e-011 -3.29181e-011
86
root  -8.5854 39.8779 24.8893 -91.7825 -88.3801 89.126
RightUpLeg  -16.8739 -3.79981 3.65063
RightLeg  7.02252 -18.6129 4.69939
RightFoot  -11.2489 -0.0892261 5.44371
RightToes  2.32829e-010 0 -3.6325e-017
Spine  2.65262 -5.30539 -1.38452
Spine1  6.07631 -6.28399 4.65254
HEad  0.717359 -6.52807 2.7298
LeftShoulder1  6.01674 -8.91561 -42.0344
LeftArm  7.2479 14.7785 -34.9552
LeftForeArm  -177.944 -54.1479 -167.047
LeftHand  -0.244104 0.0205437 5.32207
RightShoulder  3.65372 7.58333 26.8969
RightArm  13.1688 -59.625 24.0831
RightForeArm  151.382 65.1029 156.834
RightHand  0.015439 -8.76474 -2.07454
LeftUpLeg  8.17351 13.7835 1.08095
LeftLeg  37.7119 -3.97815 -2.94615
LeftFoot  8.93618 2.26274 -12.9933
LeftToes  -1.53708e-010 -3.96652e-011 -3.29181e-011
87
root  -10.8776 39.1693 25.0508 -99.9282 -87.9432 96.0553
RightUpLeg  -17.6053 -5.34844 5.863
RightLeg  11.5518 -16.707 3.13204
RightFoot  -10.4414 -0.0500914 0.93096
RightToes  2.32829e-010 0 -3.6325e-017
Spine  4.17857 -5.23769 -0.0743981
Spine1  5.84566 -5.72095 3.8207
HEad  -0.974606 -8.93387 3.20578
LeftShoulder1  5.74148 -8.49907 -41.4605
LeftArm  7.65027 13.3262 -35.849
LeftForeArm  -178.095 -54.8308 -166.717
LeftHand  -0.244104 0.0205437 5.32207
RightShoulder  3.23446 6.90514 24.9635
RightArm  6.65492 -60.9944 29.9873
RightForeArm  154.171 64.9537 157.283
RightHand  -0.00515306 -8.73329 -1.40031
LeftUpLeg  5.10089 9.67778 1.60001
LeftLeg  49.665 -3.54562 -3.95327
LeftFoot  8.7429 2.44296 -14.0489
LeftToes  -1.53708e-010 -3.96652e-011 -3.29181e-011
88
root  -13.1336 38.3717 25.2221 -133.808 -87.7533 128.87
RightUpLeg  -20.1782 -10.6257 10.6407
RightLeg  21.8468 -7.93559 -1.31914
RightFoot  -7.81272 0.23197 -9.234
RightToes  2.32829e-010 0 -3.6325e-017
Spine  6.30022 -4.82636 2.55779
Spine1  4.76855 -4.70453 2.23324
HEad  -4.29697 -11.4725 4.3268
LeftShoulder1  5.60164 -8.1785 -41.5695
LeftArm  6.99913 11.9962 -36.7016
LeftForeArm  -177.818 -56.4117 -165.947
LeftHand  -0.244104 0.0205437 5.32207
RightShoulder  3.13604 6.28742 25.964
RightArm  2.45647 -59.2886 31.4298
RightForeArm  153.935 64.7421 157.468
RightHand  0.0270653 -8.98887 -2.35593
LeftUpLeg  1.38378 7.21945 3.64012
LeftLeg  60.5697 -1.0275 -1.27046
LeftFoot  6.10343 1.84336 -12.1738
LeftToes  -1.53708e-010 -3.96652e-011 -3.29181e-011
89
root  -15.3138 37.5766 25.3664 -176.895 -87.3483 170.888
RightUpLeg  -21.6545 -8.38093 13.6527
RightLeg  32.1385 -7.66571 -5.77869
RightFoot  -7.95267 0.451481 -17.5638
RightToes  2.32829e-010 0 -3.6325e-017
Spine  8.57859 -4.76379 4.94009
Spine1  4.21969 -4.46547 2.03292
HEad  -9.18871 -13.1641 6.05186
LeftShoulder1  5.90911 -8.34935 -43.3098
LeftArm  4.54918 11.3363 -36.6703
LeftForeArm  -177.867 -59.9858 -163.865
LeftHand  -0.244104 0.0205437 5.32207
RightShoulder  3.59054 6.35388 30.4177
RightArm  1.41689 -51.9685 27.2029
RightForeArm  148.894 65.6455 155.985
RightHand  0.119378 -9.14814 -4.99774
LeftUpLeg  -3.3327 4.30167 6.73407
LeftLeg  69.2698 1.31716 4.67858
LeftFoot  2.55801 0.971997 -8.05345
LeftToes  -1.53708e-010 -3.96652e-011 -3.29181e-011
90
root  -17.3633 37.0644 25.4188 149.536 -86.7755 -156.562
RightUpLeg  -20.6283 -6.0179 15.1951
RightLeg  39.4721 -10.2713 -9.17646
RightFoot  -12.38 -0.238189 -19.1032
RightToes  2.32829e-010 0 -3.6325e-017
Spine  10.1243 -5.1825 5.78219
Spine1  5.21229 -5.30608 4.39092
HEad  -13.4931 -14.1417 7.35525
LeftShoulder1  6.76352 -9.28359 -46.0856
LeftArm  0.908826 12.8016 -35.1179
LeftForeArm  179.568 -64.8089 -160.113
LeftHand  -0.244104 0.0205437 5.32207
RightShoulder  4.39525 7.1074 35.4467
RightArm  -0.409436 -40.3587 24.0248
RightForeArm  147.354 68.0552 153.017
RightHand  0.149641 -9.05468 -6.00264
LeftUpLeg  -9.04107 -0.303173 9.72436
LeftLeg  74.257 2.23662 9.96045
LeftFoot  -1.06406 0.332431 -3.62637
LeftToes  -1.53708e-010 -3.96652e-011 -3.29181e-011
91
root  -19.4488 37.0781 25.3385 149.384 -85.5246 -156.868
RightUpLeg  -17.0341 -5.87594 15.3058
RightLeg  41.4757 -10.2037 -9.81837
RightFoot  -17.3995 -1.02139 -16.9129
RightToes  2.32829e-010 0 -3.6325e-017
Spine  9.91592 -5.02341 5.43337
Spine1  6.65194 -5.56099 6.16122
HEad  -14.9508 -15.739 7.91731
LeftShoulder1  7.62937 -10.3653 -48.0148
LeftArm  -1.47412 17.3003 -32.4416
LeftForeArm  174.831 -67.7059 -156.866
LeftHand  -0.244104 0.0205437 5.32207
RightShoulder  4.99744 7.85733 37.9619
RightArm  -3.96508 -29.8962 26.8421
RightForeArm  154.681 69.8698 151.535
RightHand  0.0819852 -9.17704 -3.893
LeftUpLeg  -14.3307 -3.71988 11.135
LeftLeg  73.8221 2.77079 11.827
LeftFoot  -4.54639 0.0860704 -1.10979
LeftToes  -1.53708e-010 -3.96652e-011 -3.29181e-011
92
root  -21.6508 37.5863 25.1208 175.1 -82.4165 177.865
RightUpLeg  -11.9666 -4.08167 13.0671
RightLeg  39.1587 -8.70129 -7.82722
RightFoot  -19.5165 -1.25772 -15.6147
RightToes  2.32829e-010 0 -3.6325e-017
Spine  8.02254 -3.57506 5.11464
Spine1  7.25988 -3.69707 4.02851
HEad  -14.0126 -18.4424 8.66317
LeftShoulder1  7.7308 -10.6191 -47.7562
LeftArm  -0.809989 23.837 -29.5725
LeftForeArm  172.174 -66.3389 -157.865
LeftHand  -0.244104 0.0205437 5.32207
RightShoulder  5.15774 8.18576 38.076
RightArm  -6.30653 -23.8616 34.0078
RightForeArm  162.823 68.7297 154.077
RightHand  0.0326757 -9.33468 -2.33007
LeftUpLeg  -17.7137 -3.12819 10.3803
LeftLeg  67.4007 3.73324 10.6145
LeftFoot  -7.16286 0.104993 -1.75808
LeftToes  -1.53708e-010 -3.96652e-011 -3.29181e-011
93
root  -23.8602 38.3608 24.8234 -171.554 -76.8652 165.593
RightUpLeg  -7.18437 -0.135042 10.0021
RightLeg  35.4802 -7.20579 -5.75248
RightFoot  -18.9291 -1.13452 -15.1
RightToes  2.32829e-010 0 -3.6325e-017
Spine  5.7688 -1.38388 5.46182
Spine1  6.83552 -0.541705 -0.485222
HEad  -12.5228 -21.2342 10.1343
LeftShoulder1  7.05085 -9.94806 -45.6661
LeftArm  1.39964 30.8033 -27.3823
LeftForeArm  172.323 -62.0077 -161.623
LeftHand  -0.244104 0.0205437 5.32207
RightShoulder  5.13966 8.2251 37.7836
RightArm  -4.16565 -20.7513 39.8749
RightForeArm  163.033 65.2808 157.92
RightHand  0.05959 -8.87106 -3.48379
LeftUpLeg  -19.0144 0.117493 8.68942
LeftLeg  55.8738 5.17419 8.61815
LeftFoot  -7.23286 0.184422 -3.84339
LeftToes  -1.53708e-010 -3.96652e-011 -3.29181e-011
94
root  -26.0162 39.1449 24.5006 -168.225 -71.4475 163.631
RightUpLeg  -3.76166 3.95168 7.49032
RightLeg  32.7082 -5.80183 -4.26063
RightFoot  -17.0514 -0.75731 -12.7378
RightToes  2.32829e-010 0 -3.6325e-017
Spine  3.78995 0.501814 5.56319
Spine1  5.91546 1.8801 -3.63858
HEad  -11.1899 -22.9266 11.5079
LeftShoulder1  6.39605 -9.28203 -43.5103
LeftArm  1.91765 37.9053 -26.3496
LeftForeArm  172.905 -57.7576 -164.474
LeftHand  -0.244104 0.0205437 5.32207
RightShoulder  5.08829 8.11631 37.7522
RightArm  2.23469 -18.1303 41.2588
RightForeArm  162.393 61.7711 160.863
RightHand  0.0292014 -7.57692 -3.51112
LeftUpLeg  -19.0008 3.40823 7.44358
LeftLeg  41.4785 6.96602 6.92217
LeftFoot  -5.59275 0.220614 -3.79555
LeftToes  -1.53708e-010 -3.96652e-011 -3.29181e-011
95
root  -28.0892 39.7302 24.1996 -167.748 -66.9724 164.543
RightUpLeg  -2.47712 6.30491 5.468
RightLeg  32.7826 -3.39284 -2.57637
RightFoot  -13.5638 -0.259691 -8.01363
RightToes  2.32829e-010 0 -3.6325e-017
Spine  2.15392 1.59839 4.984
Spine1  5.25533 2.9442 -4.55786
HEad  -10.026 -23.1365 11.9347
LeftShoulder1  6.3796 -9.47706 -42.6905
LeftArm  -0.733009 44.9735 -26.2913
LeftForeArm  173.331 -54.9661 -165.989
LeftHand  -0.244104 0.0205437 5.32207
RightShoulder  4.98487 8.00649 37.2882
RightArm  9.23375 -15.3381 40.2152
RightForeArm  167.948 59.5406 162.939
RightHand  -0.0523924 -7.26041 0.584853
LeftUpLeg  -18.143 6.30287 6.88715
LeftLeg  26.6504 7.07872 4.31282
LeftFoot  -4.79471 0.109947 -1.39784
LeftToes  -1.53708e-010 -3.96652e-011 -3.29181e-011
